<svg width="28" height="28" viewBox="0 0 28 28" fill="none" xmlns="http://www.w3.org/2000/svg">
<g clip-path="url(#clip0_18416_1359)">
<circle cx="14" cy="13.9997" r="11.6667" fill="white"/>
<path d="M14.6918 27.1343L14.679 27.1367L14.5962 27.1775L14.5728 27.1822L14.5565 27.1775L14.4737 27.1367C14.4612 27.1328 14.4519 27.1347 14.4457 27.1425L14.441 27.1542L14.4212 27.6535L14.427 27.6768L14.4387 27.692L14.56 27.7783L14.5775 27.783L14.5915 27.7783L14.7128 27.692L14.7268 27.6733L14.7315 27.6535L14.7117 27.1553C14.7085 27.1429 14.7019 27.1359 14.6918 27.1343ZM15.001 27.0025L14.9858 27.0048L14.77 27.1133L14.7583 27.125L14.7548 27.1378L14.7758 27.6395L14.7817 27.6535L14.791 27.6617L15.0255 27.7702C15.0403 27.7741 15.0516 27.771 15.0593 27.7608L15.064 27.7445L15.0243 27.0282C15.0204 27.0142 15.0127 27.0056 15.001 27.0025ZM14.1668 27.0048C14.1617 27.0017 14.1555 27.0007 14.1497 27.002C14.1438 27.0033 14.1387 27.0068 14.1353 27.0118L14.1283 27.0282L14.0887 27.7445C14.0894 27.7585 14.0961 27.7678 14.1085 27.7725L14.126 27.7702L14.3605 27.6617L14.3722 27.6523L14.3768 27.6395L14.3967 27.1378L14.3932 27.1238L14.3815 27.1122L14.1668 27.0048Z" fill="#E17B0E"/>
<path d="M14 0C21.7322 0 28 6.2678 28 14C28 21.7322 21.7322 28 14 28C6.2678 28 0 21.7322 0 14C0 6.2678 6.2678 0 14 0ZM18.949 8.9334L12.019 15.8634L9.051 12.894C8.92102 12.7639 8.76669 12.6607 8.59682 12.5903C8.42696 12.5199 8.24488 12.4836 8.06099 12.4835C7.68962 12.4834 7.3334 12.6308 7.0707 12.8933C6.808 13.1558 6.66035 13.5119 6.66022 13.8833C6.66009 14.2547 6.80749 14.6109 7.07 14.8736L10.9312 18.7348C11.0742 18.8779 11.244 18.9914 11.4309 19.0688C11.6178 19.1463 11.8181 19.1861 12.0204 19.1861C12.2227 19.1861 12.423 19.1463 12.6099 19.0688C12.7968 18.9914 12.9666 18.8779 13.1096 18.7348L20.93 10.9144C21.1927 10.6517 21.3403 10.2954 21.3403 9.9239C21.3403 9.55239 21.1927 9.1961 20.93 8.9334C20.6673 8.6707 20.311 8.52312 19.9395 8.52312C19.568 8.52312 19.2117 8.6707 18.949 8.9334Z" fill="#E17B0E"/>
</g>
<defs>
<clipPath id="clip0_18416_1359">
<rect width="28" height="28" fill="white"/>
</clipPath>
</defs>
</svg>
