<svg width="184" height="141" viewBox="0 0 184 141" fill="none" xmlns="http://www.w3.org/2000/svg">
<g filter="url(#filter0_f_18435_8218)">
<ellipse cx="90.5004" cy="114.008" rx="67.5014" ry="13.0219" fill="#6600EB" fill-opacity="0.35"/>
</g>
<path d="M91.2419 140C129.902 140 161.242 108.66 161.242 70C161.242 31.3401 129.902 0 91.2419 0C52.582 0 21.2419 31.3401 21.2419 70C21.2419 108.66 52.582 140 91.2419 140Z" fill="url(#paint0_linear_18435_8218)"/>
<g filter="url(#filter1_d_18435_8218)">
<path d="M149.879 47.3724L89.8936 89.2345L29.9084 47.3724L84.8201 9.03527C86.3093 7.99737 88.0809 7.44092 89.896 7.44092C91.7112 7.44092 93.4828 7.99737 94.972 9.03527L105.925 16.6927L108.793 18.6843L137.671 38.8486L140.713 40.9845L149.879 47.3724Z" fill="#F3EBFF"/>
</g>
<path d="M80.14 82.4286L29.9084 118.147V47.3726L80.14 82.4286Z" fill="url(#paint1_linear_18435_8218)"/>
<g filter="url(#filter2_f_18435_8218)">
<ellipse cx="119.202" cy="45.9756" rx="22.3233" ry="7.17534" fill="#14A800" fill-opacity="0.3"/>
</g>
<path d="M99.6521 82.4286L149.884 118.147V47.3726L99.6521 82.4286Z" fill="url(#paint2_linear_18435_8218)"/>
<path d="M29.9084 118.147L84.7554 79.1526C86.2564 78.0837 88.0533 77.5093 89.896 77.5093C91.7388 77.5093 93.5357 78.0837 95.0367 79.1526L149.879 118.147H29.9084Z" fill="url(#paint3_linear_18435_8218)"/>
<path d="M120.234 41.8354C121.909 41.8354 123.078 40.6925 123.078 39.0977C123.078 37.503 121.909 36.3601 120.234 36.3601C118.586 36.3601 117.39 37.503 117.39 39.0977C117.39 40.6925 118.586 41.8354 120.234 41.8354ZM122.52 35.3767C122.52 33.5161 123.424 32.7985 124.806 32.0809C126.666 31.124 128.048 29.5559 128.048 27.3232C128.048 24.0009 124.886 21.6619 120.659 21.6619C116.194 21.6619 113.005 24.2932 112.686 27.9877L117.815 28.918C118.002 27.2169 119.012 25.9677 120.447 25.9677C121.59 25.9677 122.467 26.7651 122.467 27.8548C122.467 28.9445 121.483 29.5559 120.633 30.114C118.772 31.3367 117.975 32.7188 117.975 35.3767H122.52Z" fill="white"/>
<g filter="url(#filter3_d_18435_8218)">
<path d="M36.2465 34.5483C27.0504 38.8501 17.1684 41.4981 7.05353 42.3711C8.42027 45.5481 18.1313 61.4514 46.9585 74.5552C47.7378 74.6751 65.7391 66.3009 75.6179 60.5582C75.2822 61.0378 44.9324 49.8701 36.2465 34.5483Z" fill="url(#paint4_linear_18435_8218)"/>
</g>
<path d="M119.891 51.9532C130.945 51.9532 139.906 42.9922 139.906 31.9383C139.906 20.8843 130.945 11.9233 119.891 11.9233C108.837 11.9233 99.8762 20.8843 99.8762 31.9383C99.8762 42.9922 108.837 51.9532 119.891 51.9532Z" fill="url(#paint5_linear_18435_8218)"/>
<path d="M36.9582 42.4552C36.535 42.1616 35.999 42.0823 35.509 42.2409L19.4195 47.4463C18.8431 47.6327 18.6378 48.3427 19.0256 48.808C19.3379 49.1828 19.849 49.3259 20.3105 49.1679L36.8105 43.5163C37.2761 43.3569 37.3626 42.7357 36.9582 42.4552Z" fill="#C9DFFF"/>
<path d="M36.6793 48.8663C36.2712 48.4831 35.6855 48.3554 35.1549 48.534L24.0164 52.2826C23.5253 52.4479 23.3518 53.0539 23.6812 53.454C23.9503 53.7809 24.3937 53.9069 24.7945 53.7705L36.4792 49.7919C36.8737 49.6576 36.9831 49.1515 36.6793 48.8663Z" fill="#C9DFFF"/>
<path d="M42.6576 52.0408C42.2318 51.6998 41.659 51.6054 41.1462 51.7918L28.316 56.4549C27.8125 56.6379 27.6609 57.2767 28.0286 57.6664C28.3099 57.9646 28.7419 58.0664 29.1267 57.9251L42.4981 53.0183C42.9137 52.8658 43.0032 52.3176 42.6576 52.0408Z" fill="#C9DFFF"/>
<path d="M47.1433 61.6656C46.7489 61.2296 46.1273 61.0805 45.578 61.2901L38.2455 64.0882C37.7953 64.2601 37.6329 64.8139 37.9192 65.2016C38.1875 65.5649 38.6657 65.7038 39.0868 65.5407L46.9461 62.4967C47.2851 62.3654 47.3871 61.9351 47.1433 61.6656Z" fill="#C9DFFF"/>
<g filter="url(#filter4_d_18435_8218)">
<path d="M142.548 56.7261C153.699 61.9422 165.681 65.1531 177.946 66.2116C176.289 70.064 164.514 89.3476 129.559 105.237C128.614 105.382 106.787 95.2279 94.8079 88.2646C95.2149 88.8461 132.016 75.3046 142.548 56.7261Z" fill="url(#paint6_linear_18435_8218)"/>
</g>
<path d="M141.686 66.3142C142.199 65.9582 142.849 65.862 143.443 66.0543L162.952 72.3662C163.651 72.5923 163.9 73.4531 163.43 74.0174C163.051 74.4718 162.431 74.6454 161.872 74.4537L141.865 67.6009C141.3 67.4075 141.195 66.6543 141.686 66.3142Z" fill="#C9DFFF"/>
<path d="M136.223 71.5096C136.718 71.045 137.428 70.8902 138.071 71.1067L151.578 75.6521C152.173 75.8525 152.383 76.5873 151.984 77.0725C151.658 77.4688 151.12 77.6217 150.634 77.4562L136.466 72.632C135.987 72.4691 135.855 71.8555 136.223 71.5096Z" fill="#C9DFFF"/>
<path d="M130.609 75.8227C131.126 75.4092 131.82 75.2947 132.442 75.5207L147.999 81.175C148.61 81.3969 148.794 82.1715 148.348 82.6441C148.007 83.0056 147.483 83.129 147.017 82.9578L130.803 77.008C130.299 76.823 130.19 76.1583 130.609 75.8227Z" fill="#C9DFFF"/>
<path d="M117.978 84.4519C118.456 83.9233 119.21 83.7425 119.876 83.9967L128.767 87.3896C129.313 87.5979 129.51 88.2694 129.163 88.7395C128.837 89.1801 128.258 89.3485 127.747 89.1507L118.217 85.4597C117.806 85.3006 117.682 84.7788 117.978 84.4519Z" fill="#C9DFFF"/>
<path d="M123.782 79.8436C124.308 79.5135 124.957 79.4452 125.541 79.6585L146.027 87.1488C146.682 87.3882 146.84 88.2419 146.315 88.7005C145.968 89.0038 145.483 89.0934 145.05 88.934L123.917 81.1493C123.348 80.9393 123.267 80.1664 123.782 79.8436Z" fill="#C9DFFF"/>
<path d="M51.5805 54.1441C51.1465 53.8719 50.6109 53.8155 50.1297 53.9914L33.2349 60.1687C32.6949 60.3662 32.5641 61.0702 32.9971 61.4484C33.2835 61.6986 33.6837 61.7724 34.0405 61.641L51.4685 55.2209C51.9385 55.0477 52.0048 54.4103 51.5805 54.1441Z" fill="#C9DFFF"/>
<path d="M150.029 16.4764C150.029 18.5312 148.363 20.197 146.308 20.197C144.254 20.197 142.588 18.5312 142.588 16.4764C142.588 14.4216 144.254 12.7559 146.308 12.7559C148.363 12.7559 150.029 14.4216 150.029 16.4764Z" fill="#C7A4F3"/>
<ellipse cx="42.6649" cy="124.904" rx="3.72055" ry="3.72055" fill="#C7A4F3"/>
<ellipse cx="132.49" cy="130.751" rx="3.72055" ry="3.72055" fill="#C7A4F3"/>
<path d="M52.5862 19.4874C52.9005 18.1857 54.752 18.1857 55.0662 19.4874L56.1238 23.8685C56.2361 24.3337 56.5993 24.6969 57.0645 24.8092L61.4456 25.8668C62.7473 26.181 62.7473 28.0325 61.4456 28.3468L57.0645 29.4043C56.5993 29.5166 56.2361 29.8798 56.1238 30.345L55.0662 34.7261C54.752 36.0278 52.9005 36.0278 52.5862 34.7261L51.5287 30.345C51.4164 29.8798 51.0532 29.5166 50.588 29.4043L46.2069 28.3468C44.9052 28.0325 44.9052 26.181 46.2069 25.8668L50.588 24.8092C51.0532 24.6969 51.4164 24.3337 51.5287 23.8685L52.5862 19.4874Z" fill="#F3993F"/>
<path d="M159.087 111.936C159.401 110.634 161.252 110.634 161.567 111.936L162.624 116.317C162.737 116.782 163.1 117.146 163.565 117.258L167.946 118.315C169.248 118.63 169.248 120.481 167.946 120.795L163.565 121.853C163.1 121.965 162.737 122.329 162.624 122.794L161.567 127.175C161.252 128.477 159.401 128.477 159.087 127.175L158.029 122.794C157.917 122.329 157.554 121.965 157.088 121.853L152.707 120.795C151.406 120.481 151.406 118.63 152.707 118.315L157.088 117.258C157.554 117.146 157.917 116.782 158.029 116.317L159.087 111.936Z" fill="#F3993F"/>
<path d="M23.2156 101.682C24.0236 101.552 24.6687 102.346 24.3767 103.11L22.4061 108.271C22.1142 109.035 21.1041 109.197 20.5881 108.562L17.1046 104.275C16.5885 103.64 16.9535 102.684 17.7615 102.555L23.2156 101.682Z" fill="#C7A4F3"/>
<path d="M161.197 49.08C160.995 48.2871 161.727 47.5726 162.515 47.794L167.833 49.2884C168.62 49.5097 168.873 50.5009 168.287 51.0725L164.335 54.9305C163.749 55.5021 162.764 55.2253 162.562 54.4324L161.197 49.08Z" fill="#C7A4F3"/>
<path d="M129.422 26.5474L117.674 38.2953L112.334 32.9553" stroke="white" stroke-width="4.88226" stroke-linecap="round" stroke-linejoin="round"/>
<defs>
<filter id="filter0_f_18435_8218" x="9.71135" y="87.6987" width="161.578" height="52.6193" filterUnits="userSpaceOnUse" color-interpolation-filters="sRGB">
<feFlood flood-opacity="0" result="BackgroundImageFix"/>
<feBlend mode="normal" in="SourceGraphic" in2="BackgroundImageFix" result="shape"/>
<feGaussianBlur stdDeviation="6.64384" result="effect1_foregroundBlur_18435_8218"/>
</filter>
<filter id="filter1_d_18435_8218" x="27.7824" y="7.44092" width="124.222" height="86.0455" filterUnits="userSpaceOnUse" color-interpolation-filters="sRGB">
<feFlood flood-opacity="0" result="BackgroundImageFix"/>
<feColorMatrix in="SourceAlpha" type="matrix" values="0 0 0 0 0 0 0 0 0 0 0 0 0 0 0 0 0 0 127 0" result="hardAlpha"/>
<feOffset dy="2.12603"/>
<feGaussianBlur stdDeviation="1.06301"/>
<feComposite in2="hardAlpha" operator="out"/>
<feColorMatrix type="matrix" values="0 0 0 0 0 0 0 0 0 0 0 0 0 0 0 0 0 0 0.25 0"/>
<feBlend mode="normal" in2="BackgroundImageFix" result="effect1_dropShadow_18435_8218"/>
<feBlend mode="normal" in="SourceGraphic" in2="effect1_dropShadow_18435_8218" result="shape"/>
</filter>
<filter id="filter2_f_18435_8218" x="83.5907" y="25.5126" width="71.2218" height="40.9259" filterUnits="userSpaceOnUse" color-interpolation-filters="sRGB">
<feFlood flood-opacity="0" result="BackgroundImageFix"/>
<feBlend mode="normal" in="SourceGraphic" in2="BackgroundImageFix" result="shape"/>
<feGaussianBlur stdDeviation="6.64384" result="effect1_foregroundBlur_18435_8218"/>
</filter>
<filter id="filter3_d_18435_8218" x="0.675383" y="30.2963" width="81.3206" height="52.7645" filterUnits="userSpaceOnUse" color-interpolation-filters="sRGB">
<feFlood flood-opacity="0" result="BackgroundImageFix"/>
<feColorMatrix in="SourceAlpha" type="matrix" values="0 0 0 0 0 0 0 0 0 0 0 0 0 0 0 0 0 0 127 0" result="hardAlpha"/>
<feOffset dy="2.12603"/>
<feGaussianBlur stdDeviation="3.18904"/>
<feComposite in2="hardAlpha" operator="out"/>
<feColorMatrix type="matrix" values="0 0 0 0 0.0196078 0 0 0 0 0.168627 0 0 0 0 0.396078 0 0 0 0.15 0"/>
<feBlend mode="normal" in2="BackgroundImageFix" result="effect1_dropShadow_18435_8218"/>
<feBlend mode="normal" in="SourceGraphic" in2="effect1_dropShadow_18435_8218" result="shape"/>
</filter>
<filter id="filter4_d_18435_8218" x="82.5498" y="55.6631" width="101.21" height="66.5834" filterUnits="userSpaceOnUse" color-interpolation-filters="sRGB">
<feFlood flood-opacity="0" result="BackgroundImageFix"/>
<feColorMatrix in="SourceAlpha" type="matrix" values="0 0 0 0 0 0 0 0 0 0 0 0 0 0 0 0 0 0 127 0" result="hardAlpha"/>
<feOffset dx="-3.22242" dy="7.9726"/>
<feGaussianBlur stdDeviation="4.51781"/>
<feComposite in2="hardAlpha" operator="out"/>
<feColorMatrix type="matrix" values="0 0 0 0 0.021441 0 0 0 0 0.168056 0 0 0 0 0.395833 0 0 0 0.15 0"/>
<feBlend mode="normal" in2="BackgroundImageFix" result="effect1_dropShadow_18435_8218"/>
<feBlend mode="normal" in="SourceGraphic" in2="effect1_dropShadow_18435_8218" result="shape"/>
</filter>
<linearGradient id="paint0_linear_18435_8218" x1="90.7023" y1="-22.7937" x2="92.1363" y2="223.036" gradientUnits="userSpaceOnUse">
<stop stop-color="#F3EBFF" stop-opacity="0.2"/>
<stop offset="1" stop-color="#F3EBFF"/>
</linearGradient>
<linearGradient id="paint1_linear_18435_8218" x1="55.0242" y1="47.3726" x2="55.0242" y2="118.147" gradientUnits="userSpaceOnUse">
<stop stop-color="#8B32FF"/>
<stop offset="1" stop-color="#B08EDD"/>
</linearGradient>
<linearGradient id="paint2_linear_18435_8218" x1="124.768" y1="47.3726" x2="124.768" y2="118.147" gradientUnits="userSpaceOnUse">
<stop stop-color="#8B32FF"/>
<stop offset="1" stop-color="#B08EDD"/>
</linearGradient>
<linearGradient id="paint3_linear_18435_8218" x1="89.8936" y1="77.5093" x2="89.8936" y2="118.147" gradientUnits="userSpaceOnUse">
<stop stop-color="#6600EB"/>
<stop offset="1" stop-color="#C599FF"/>
</linearGradient>
<linearGradient id="paint4_linear_18435_8218" x1="14.4946" y1="52.3538" x2="59.407" y2="43.584" gradientUnits="userSpaceOnUse">
<stop stop-color="#C6DDFF"/>
<stop offset="1" stop-color="white"/>
</linearGradient>
<linearGradient id="paint5_linear_18435_8218" x1="100.068" y1="14.6166" x2="139.931" y2="52.0878" gradientUnits="userSpaceOnUse">
<stop stop-color="#8FE783"/>
<stop offset="1" stop-color="#20A10F"/>
</linearGradient>
<linearGradient id="paint6_linear_18435_8218" x1="168.923" y1="78.3163" x2="114.465" y2="67.6823" gradientUnits="userSpaceOnUse">
<stop stop-color="#C6DDFF"/>
<stop offset="1" stop-color="white"/>
</linearGradient>
</defs>
</svg>
