<svg width="152" height="48" viewBox="0 0 152 48" fill="none" xmlns="http://www.w3.org/2000/svg">
<g clip-path="url(#clip0_22430_686)">
<path d="M22.8789 3.0791C10.2868 3.0791 0.0784607 12.4813 0.0784607 24.0792C0.0784607 35.6777 10.2868 45.0791 22.8789 45.0791C35.4723 45.0791 45.6796 35.6777 45.6796 24.0792C45.6796 12.482 35.4723 3.0801 22.8786 3.0801L22.8789 3.0791V3.0791ZM33.335 33.3673C32.9266 33.9842 32.0499 34.1798 31.3801 33.8011C26.0268 30.7894 19.2877 30.1073 11.3511 31.7774C10.5863 31.9379 9.82397 31.4966 9.64972 30.7919C9.47465 30.0872 9.95193 29.3851 10.7186 29.2246C19.4039 27.3969 26.854 28.1839 32.864 31.5668C33.5338 31.9454 33.7461 32.7504 33.335 33.3673V33.3673ZM36.1257 27.6492C35.6111 28.4196 34.5166 28.6628 33.6808 28.1889C27.5521 24.7192 18.2098 23.7144 10.9607 25.7411C10.0205 26.0026 9.02759 25.5146 8.74225 24.6502C8.4591 23.7843 8.9892 22.8715 9.9277 22.6082C18.2081 20.2941 28.5023 21.415 35.5404 25.3985C36.3762 25.8725 36.6403 26.8806 36.1257 27.6495V27.6492ZM36.3653 21.6949C29.0169 17.6748 16.8928 17.3051 9.87679 19.2664C8.75015 19.5811 7.55871 18.9953 7.21729 17.9576C6.87587 16.9194 7.51134 15.8228 8.63879 15.5073C16.6927 13.2554 30.0814 13.6905 38.5418 18.3165C39.5574 18.8704 39.8895 20.0759 39.2878 21.008C38.6889 21.9414 37.3765 22.2491 36.3664 21.6949H36.3653ZM62.1108 22.4653C58.1739 21.6006 57.4742 20.9937 57.4742 19.7186C57.4742 18.5139 58.7048 17.7031 60.5371 17.7031C62.3123 17.7031 64.0712 18.3187 65.9171 19.5861C65.9716 19.6245 66.0424 19.6398 66.1104 19.6298C66.1812 19.6203 66.2411 19.5854 66.282 19.533L68.2042 17.0373C68.2831 16.9345 68.2613 16.7928 68.1552 16.7143C65.958 15.0911 63.4858 14.3019 60.5943 14.3019C56.3442 14.3019 53.3738 16.6514 53.3738 20.013C53.3738 23.6178 55.9358 24.8942 60.3629 25.8795C64.1283 26.6787 64.7654 27.3483 64.7654 28.545C64.7654 29.8716 63.4804 30.6966 61.4111 30.6966C59.1132 30.6966 57.2373 29.9819 55.1408 28.3118C55.0891 28.2691 55.0183 28.2516 54.953 28.2541C54.8822 28.2591 54.8196 28.2892 54.776 28.3368L52.6196 30.6991C52.5298 30.7994 52.5407 30.9449 52.6441 31.0301C55.0837 33.0363 58.084 34.0945 61.324 34.0945C65.9035 34.0945 68.8631 31.79 68.8631 28.2215C68.8712 25.2105 66.9136 23.5428 62.119 22.4685L62.1108 22.4653V22.4653ZM79.2255 18.8893C77.2407 18.8893 75.6125 19.6095 74.2676 21.0853V19.4242C74.2676 19.293 74.1532 19.1862 74.0116 19.1862H70.4858C70.3442 19.1862 70.2298 19.293 70.2298 19.4242V37.8812C70.2298 38.0116 70.3442 38.1194 70.4858 38.1194H74.0116C74.1532 38.1194 74.2676 38.0116 74.2676 37.8812V32.0558C75.6125 33.4425 77.2407 34.1221 79.2255 34.1221C82.9147 34.1221 86.6502 31.5066 86.6502 26.5064C86.6557 21.5053 82.9202 18.889 79.2282 18.889L79.2255 18.8893ZM82.5499 26.5064C82.5499 29.0515 80.8482 30.8295 78.4087 30.8295C75.9992 30.8295 74.1804 28.9713 74.1804 26.5064C74.1804 24.0414 75.9992 22.1836 78.4087 22.1836C80.8074 22.1834 82.5499 24.001 82.5499 26.5062V26.5064ZM96.2204 18.8893C91.4694 18.8893 87.7475 22.2586 87.7475 26.5609C87.7475 30.817 91.4449 34.1497 96.1632 34.1497C100.931 34.1497 104.663 30.7919 104.663 26.5064C104.663 22.2356 100.955 18.8898 96.2204 18.8898V18.8893V18.8893ZM96.2204 30.8546C93.6938 30.8546 91.7879 28.9838 91.7879 26.5052C91.7879 24.0153 93.6284 22.2085 96.1632 22.2085C98.7062 22.2085 100.623 24.0785 100.623 26.5596C100.623 29.049 98.7715 30.8546 96.2204 30.8546V30.8546ZM114.808 19.1862H110.928V15.5334C110.928 15.4025 110.814 15.2957 110.672 15.2957H107.146C107.005 15.2957 106.888 15.4025 106.888 15.5334V19.1862H105.194C105.053 19.1862 104.938 19.293 104.938 19.4242V22.2145C104.938 22.3454 105.053 22.4525 105.194 22.4525H106.888V29.6734C106.888 32.5899 108.464 34.0695 111.576 34.0695C112.84 34.0695 113.888 33.8287 114.876 33.3121C114.958 33.272 115.007 33.1918 115.007 33.1065V30.4483C115.007 30.3681 114.961 30.2903 114.884 30.2477C114.808 30.2026 114.713 30.2001 114.634 30.2377C113.956 30.5511 113.3 30.6966 112.565 30.6966C111.435 30.6966 110.928 30.2226 110.928 29.1644V22.4537H114.808C114.95 22.4537 115.064 22.3469 115.064 22.2157V19.4257C115.069 19.2945 114.955 19.1877 114.811 19.1877L114.808 19.1862V19.1862ZM128.323 19.2005V18.7518C128.323 17.432 128.873 16.8435 130.104 16.8435C130.839 16.8435 131.43 16.9779 132.092 17.181C132.173 17.2046 132.258 17.1928 132.323 17.1479C132.391 17.103 132.429 17.031 132.429 16.9548V14.2189C132.429 14.1143 132.358 14.0218 132.247 13.9909C131.55 13.7996 130.657 13.6032 129.317 13.6032C126.064 13.6032 124.34 15.2919 124.34 18.485V19.1721H122.647C122.505 19.1721 122.388 19.279 122.388 19.4099V22.2145C122.388 22.3454 122.505 22.4525 122.647 22.4525H124.34V33.588C124.34 33.7209 124.457 33.8262 124.599 33.8262H128.122C128.266 33.8262 128.381 33.7209 128.381 33.588V22.4532H131.672L136.715 33.588C136.143 34.7566 135.579 34.9898 134.811 34.9898C134.191 34.9898 133.535 34.8193 132.867 34.4807C132.805 34.4506 132.729 34.4456 132.663 34.4632C132.595 34.4858 132.538 34.5309 132.511 34.5911L131.316 37.006C131.258 37.1214 131.307 37.2543 131.427 37.3145C132.674 37.9364 133.799 38.2022 135.19 38.2022C137.793 38.2022 139.233 37.0837 140.499 34.0795L146.614 19.5255C146.647 19.4522 146.636 19.3695 146.587 19.3045C146.541 19.2401 146.462 19.2012 146.377 19.2012H142.707C142.596 19.2012 142.498 19.2657 142.462 19.3607L138.702 29.2496L134.585 19.3542C134.547 19.2622 134.452 19.2012 134.346 19.2012H128.323V19.2005V19.2005ZM120.488 19.1862H116.962C116.82 19.1862 116.703 19.293 116.703 19.4242V33.588C116.703 33.7209 116.82 33.8262 116.962 33.8262H120.488C120.629 33.8262 120.746 33.7209 120.746 33.588V19.4252C120.746 19.294 120.632 19.1872 120.488 19.1872V19.1862ZM118.745 12.7366C117.348 12.7366 116.216 13.7778 116.216 15.064C116.216 16.3509 117.348 17.3934 118.745 17.3934C120.142 17.3934 121.272 16.3509 121.272 15.064C121.272 13.778 120.139 12.7366 118.745 12.7366ZM149.625 23.7404C148.231 23.7404 147.145 22.7085 147.145 21.4554C147.145 20.2023 148.245 19.1586 149.639 19.1586C151.033 19.1586 152.119 20.1903 152.119 21.4424C152.119 22.6955 151.019 23.7404 149.625 23.7404ZM149.639 19.3858C148.368 19.3858 147.407 20.3161 147.407 21.4554C147.407 22.5942 148.362 23.512 149.625 23.512C150.897 23.512 151.858 22.5824 151.858 21.4424C151.858 20.3036 150.902 19.3858 149.639 19.3858V19.3858ZM150.189 21.6773L150.892 22.5821H150.298L149.666 21.7521H149.125V22.5821H148.629V20.1837H149.789C150.396 20.1837 150.794 20.4689 150.794 20.9488C150.796 21.3421 150.548 21.5823 150.192 21.6773H150.189ZM149.77 20.5953H149.125V21.3538H149.77C150.091 21.3538 150.284 21.2086 150.284 20.9742C150.284 20.7274 150.091 20.5953 149.77 20.5953V20.5953Z" fill="#1ED760"/>
</g>
<defs>
<clipPath id="clip0_22430_686">
<rect width="152" height="48" fill="white"/>
</clipPath>
</defs>
</svg>
