<svg width="49" height="54" viewBox="0 0 49 54" fill="none" xmlns="http://www.w3.org/2000/svg">
<path d="M48.267 26.9359C43.2432 28.3717 37.0398 30.4235 33.3985 34.2646C28.9623 38.9449 27.5042 45.8992 26.2339 52.8252C26.1125 53.4923 25.1804 53.5256 25.0127 52.8655C23.6219 47.393 21.8452 40.8256 18.4383 36.8416C14.1052 31.7733 7.62471 29.8557 1.28069 28.4887C0.616911 28.3461 0.587887 27.4678 1.2408 27.2817C6.69829 25.7235 12.9449 23.6874 16.7428 19.3303C20.7005 14.7887 22.1207 7.82823 23.3115 1.38868C23.4354 0.721486 24.3676 0.690679 24.5327 1.34833C26.0403 7.31066 28.4971 14.0595 32.36 18.2174C36.5542 22.7328 42.3289 24.4552 48.227 25.7264C48.8908 25.8691 48.9198 26.7473 48.2669 26.9335L48.267 26.9359Z" fill="#F3993F"/>
</svg>
